<svg width="100" height="61" viewBox="0 0 100 61" fill="none" xmlns="http://www.w3.org/2000/svg">
<path d="M51.891 56.6792C50.6356 55.7521 50.5028 54.3591 50.5028 54.3591L50.0324 51.3369H35.0353L34.5634 54.3591C34.5634 54.3591 34.4323 55.7521 33.1776 56.6792C31.9244 57.6072 30.934 58.4027 31.9244 58.5374C32.8779 58.6661 41.8711 58.549 42.5346 58.5374C43.1998 58.549 52.191 58.6661 53.1455 58.5374C54.1337 58.4027 53.143 57.6091 51.891 56.6792Z" fill="white"/>
<path d="M17.0064 31.3127C17.0064 29.9146 15.8779 28.7804 14.4865 28.7804H2.52018C1.12881 28.7804 0 29.9146 0 31.3127V57.8975C0 59.2973 1.12881 60.4303 2.52018 60.4303H14.4875C15.8781 60.4303 17.0074 59.2973 17.0074 57.8975V31.3127H17.0064ZM7.25338 31.6296H9.77307C9.94715 31.6296 10.0879 31.7709 10.0879 31.9446C10.0879 32.12 9.94715 32.2625 9.77307 32.2625H7.25338C7.07931 32.2625 6.93802 32.1191 6.93802 31.9446C6.93827 31.7689 7.07955 31.6296 7.25338 31.6296ZM8.40823 58.9329C7.71218 58.9329 7.14754 58.3664 7.14754 57.6664C7.14754 56.9673 7.71218 56.3999 8.40823 56.3999C9.10379 56.3999 9.66796 56.9654 9.66796 57.6664C9.66796 58.3664 9.10476 58.9329 8.40823 58.9329ZM15.4323 55.3669H1.5746V34.1605H15.4326V55.3669H15.4323Z" fill="white"/>
<path d="M95.7975 14.2167H69.8804C67.9288 14.2167 66.3467 15.8057 66.3467 17.7676V55.0467C66.3467 57.0084 67.929 58.5993 69.8804 58.5993H95.7975C97.7504 58.5993 99.3313 57.0084 99.3313 55.0467V17.7669C99.3303 15.805 97.7494 14.2167 95.7975 14.2167ZM77.7648 56.6233C76.789 56.6233 75.9966 55.83 75.9966 54.8502C75.9966 53.8693 76.789 53.0741 77.7648 53.0741C78.7388 53.0741 79.5284 53.8693 79.5284 54.8502C79.5286 55.83 78.7388 56.6233 77.7648 56.6233ZM82.8381 56.6233C81.8641 56.6233 81.0726 55.83 81.0726 54.8502C81.0726 53.8693 81.8641 53.0741 82.8381 53.0741C83.8151 53.0741 84.6044 53.8693 84.6044 54.8502C84.6044 55.83 83.816 56.6233 82.8381 56.6233ZM87.9163 56.6233C86.9394 56.6233 86.1498 55.83 86.1498 54.8502C86.1498 53.8693 86.9394 53.0741 87.9163 53.0741C88.8911 53.0741 89.6817 53.8693 89.6817 54.8502C89.6817 55.83 88.8911 56.6233 87.9163 56.6233ZM97.1226 51.4945H68.5554V17.3223H97.1226V51.4945Z" fill="white"/>
<path d="M74.3896 11.2221H78.7335V3.31604C78.7335 1.7074 77.4366 0.405029 75.8369 0.405029H9.231C7.63181 0.405029 6.33447 1.7074 6.33447 3.31604V25.7869H10.6793V4.77058H74.3896V11.2221Z" fill="white"/>
<path d="M19.9863 39.6947V48.4258H63.367V39.6947H19.9863ZM42.5329 46.0568C41.4364 46.0568 40.5463 45.162 40.5463 44.0602C40.5463 42.9587 41.4364 42.0639 42.5329 42.0639C43.6297 42.0639 44.5195 42.9587 44.5195 44.0602C44.5195 45.1618 43.6297 46.0568 42.5329 46.0568Z" fill="white"/>
</svg>
