<svg width="547" height="446" viewBox="0 0 547 446" fill="none" xmlns="http://www.w3.org/2000/svg">
<path d="M432.917 114.031C442.759 94.3548 451.88 73.2216 456.276 58.5128C462.017 39.2978 462.931 24.63 458.999 14.9159C458.738 14.2722 458.006 13.9608 457.36 14.2221C456.716 14.4834 456.407 15.2183 456.669 15.861C463.546 32.8424 454.335 66.8253 430.036 114.206L432.917 114.031Z" fill="#A07110"/>
<path d="M459.965 40.9578C459.965 40.9578 469.662 45.0104 476.115 27.6686C476.114 27.6686 459.513 25.6753 459.965 40.9578Z" fill="#A07110"/>
<path d="M457.099 50.0712C457.099 50.0712 461.684 40.6054 444.741 33.1919C444.74 33.1919 441.832 49.6697 457.099 50.0712Z" fill="#A07110"/>
<path d="M459.713 23.0403C459.713 23.0403 467.188 15.6449 453.686 3.00342C453.686 3.00442 445.452 17.5691 459.713 23.0403Z" fill="#A07110"/>
<path d="M451.902 68.5834C451.902 68.5834 459.657 75.6785 471.59 61.5433C471.59 61.5433 456.64 54.0488 451.902 68.5834Z" fill="#A07110"/>
<path d="M447.578 77.4226C447.578 77.4226 453.726 68.8929 438.322 58.6602C438.322 58.6602 432.608 74.3871 447.578 77.4226Z" fill="#A07110"/>
<path d="M442.86 90.118C442.86 90.118 450.481 97.3613 462.679 83.4544C462.679 83.4544 447.876 75.6785 442.86 90.118Z" fill="#A07110"/>
<path opacity="0.6" d="M130.106 265.741C130.106 265.749 130.11 265.755 130.11 265.762C133.154 284.205 139.125 301.281 147.401 316.412C170.261 358.221 210.707 385.183 255.663 385.183H341.964C377.009 385.183 410.449 368.59 434.539 339.421C435.579 338.166 436.6 336.884 437.603 335.583C451.027 318.131 460.711 297.393 465.879 275.061C467.601 267.616 468.822 259.999 469.513 252.266C469.529 252.08 469.545 251.905 469.56 251.716C470.794 237.679 471.139 224.165 470.516 211.406C469.127 183.003 462.923 158.338 450.921 139.945C436.956 118.542 415.138 105.64 383.92 105.243C382.621 105.227 381.316 105.227 379.995 105.251C293.975 106.748 296.837 152.017 226.384 171.882C210.283 176.423 190.352 179.638 164.646 180.696C164.069 180.719 163.499 180.751 162.936 180.799C126.847 183.465 122.97 222.489 130.106 265.741Z" fill="white"/>
<path opacity="0.3" d="M162.939 180.8C187.318 195.488 225.396 211.212 271.264 205.479C340.878 196.781 428.508 179.951 470.517 211.407C469.126 183.004 462.923 158.339 450.922 139.946C436.217 136.008 417.519 135.844 393.903 142.884C342.731 158.135 276.29 174.793 226.386 171.883C210.283 176.424 190.354 179.64 164.647 180.696C164.07 180.722 163.503 180.753 162.939 180.8Z" fill="white"/>
<path opacity="0.3" d="M130.11 265.76C133.154 284.203 139.124 301.28 147.401 316.411C165.022 322.53 188.47 324.78 218.837 317.13C293.033 298.422 374.411 298.758 434.541 339.423C435.581 338.166 436.602 336.883 437.605 335.581C451.028 318.131 460.714 297.392 465.882 275.059C444.869 263.57 392.245 241.26 324.41 259.124C252.868 277.967 170.863 292.945 130.11 265.76Z" fill="white"/>
<path opacity="0.6" d="M274.122 441.552C124.519 441.552 3.242 432.525 3.242 421.39C3.242 410.255 124.519 401.228 274.122 401.228C423.725 401.228 545.002 410.255 545.002 421.39C545.002 432.525 423.725 441.552 274.122 441.552Z" fill="white"/>
<path d="M225.072 389.567C210.312 372.004 195.929 352.786 187.905 338.937C177.417 320.845 172.926 306.191 174.563 295.381C174.67 294.66 175.338 294.168 176.054 294.278C176.771 294.383 177.264 295.052 177.155 295.769C174.3 314.667 191.891 346.895 228.043 389.039L225.072 389.567Z" fill="#A07110"/>
<path d="M179.898 322.027C179.898 322.027 171.043 328.499 160.289 312.476C160.291 312.475 176.646 306.421 179.898 322.027Z" fill="#A07110"/>
<path d="M185.018 330.576C185.018 330.576 178.073 322.088 193.457 310.45C193.454 310.449 200.405 326.457 185.018 330.576Z" fill="#A07110"/>
<path d="M175.805 303.795C175.805 303.795 166.43 298.113 177.055 282.006C177.055 282.007 188.942 294.779 175.805 303.795Z" fill="#A07110"/>
<path d="M194.783 348.088C194.783 348.088 188.636 357.168 173.104 345.733C173.104 345.734 186.446 334.501 194.783 348.088Z" fill="#A07110"/>
<path d="M201.318 356.001C201.318 356.001 193.009 348.847 206.148 334.721C206.148 334.722 215.758 349.283 201.318 356.001Z" fill="#A07110"/>
<path d="M209.182 367.73C209.182 367.73 203.21 376.93 187.462 365.791C187.46 365.791 200.588 354.306 209.182 367.73Z" fill="#A07110"/>
<path d="M526.2 297.409C529.517 297.409 532.212 294.714 532.212 291.392C532.212 288.075 529.519 285.374 526.2 285.374C522.885 285.374 520.189 288.072 520.189 291.392C520.19 294.714 522.884 297.409 526.2 297.409ZM526.2 287.265C528.476 287.265 530.326 289.12 530.326 291.393C530.326 293.671 528.476 295.525 526.2 295.525C523.925 295.525 522.073 293.671 522.073 291.393C522.072 289.118 523.924 287.265 526.2 287.265Z" fill="#A07110"/>
<path d="M504.555 318.521C507.87 318.521 510.567 315.823 510.567 312.502C510.567 309.185 507.871 306.484 504.555 306.484C501.239 306.484 498.543 309.183 498.543 312.502C498.545 315.823 501.24 318.521 504.555 318.521ZM504.555 308.375C506.832 308.375 508.681 310.23 508.681 312.502C508.681 314.781 506.832 316.632 504.555 316.632C502.28 316.632 500.431 314.781 500.431 312.502C500.431 310.229 502.28 308.375 504.555 308.375Z" fill="#FFAC00"/>
<path d="M497.128 338.078C497.647 338.078 498.069 337.654 498.069 337.134V332.971C498.069 332.451 497.646 332.03 497.128 332.03C496.607 332.03 496.184 332.452 496.184 332.971V337.134C496.184 337.653 496.605 338.078 497.128 338.078Z" fill="#A07110"/>
<path d="M497.128 345.361C497.647 345.361 498.069 344.936 498.069 344.419V340.256C498.069 339.734 497.646 339.311 497.128 339.311C496.607 339.311 496.184 339.734 496.184 340.256V344.419C496.184 344.939 496.605 345.361 497.128 345.361Z" fill="#A07110"/>
<path d="M491.288 339.638H495.021C495.544 339.638 495.966 339.216 495.966 338.695C495.966 338.174 495.544 337.751 495.021 337.751H491.288C490.767 337.751 490.345 338.174 490.345 338.695C490.345 339.216 490.766 339.638 491.288 339.638Z" fill="#A07110"/>
<path d="M499.227 339.638H502.963C503.484 339.638 503.906 339.216 503.906 338.695C503.906 338.174 503.483 337.751 502.963 337.751H499.227C498.707 337.751 498.285 338.174 498.285 338.695C498.285 339.216 498.707 339.638 499.227 339.638Z" fill="#A07110"/>
<path d="M530.325 314.752C530.846 314.752 531.267 314.33 531.267 313.812V309.65C531.267 309.127 530.845 308.702 530.325 308.702C529.805 308.702 529.384 309.125 529.384 309.65V313.812C529.382 314.33 529.804 314.752 530.325 314.752Z" fill="#FFAC00"/>
<path d="M530.325 322.038C530.846 322.038 531.267 321.614 531.267 321.095V316.932C531.267 316.411 530.845 315.988 530.325 315.988C529.805 315.988 529.384 316.411 529.384 316.932V321.095C529.382 321.614 529.804 322.038 530.325 322.038Z" fill="#FFAC00"/>
<path d="M524.486 316.314H528.223C528.744 316.314 529.167 315.891 529.167 315.37C529.167 314.848 528.744 314.426 528.223 314.426H524.486C523.967 314.426 523.544 314.848 523.544 315.37C523.544 315.891 523.967 316.314 524.486 316.314Z" fill="#FFAC00"/>
<path d="M532.427 316.314H536.162C536.683 316.314 537.105 315.891 537.105 315.37C537.105 314.848 536.683 314.426 536.162 314.426H532.427C531.907 314.426 531.485 314.848 531.485 315.37C531.484 315.891 531.907 316.314 532.427 316.314Z" fill="#FFAC00"/>
<path d="M365.128 58.6061C368.442 58.6061 371.14 55.907 371.14 52.5882C371.14 49.2714 368.444 46.5713 365.128 46.5713C361.811 46.5713 359.113 49.2704 359.113 52.5882C359.116 55.907 361.812 58.6061 365.128 58.6061ZM365.128 56.7169C362.854 56.7169 361.002 54.8658 361.002 52.5862C361.002 50.3106 362.854 48.4564 365.128 48.4564C367.401 48.4564 369.255 50.3106 369.255 52.5862C369.256 54.8658 367.403 56.7169 365.128 56.7169Z" fill="#A07110"/>
<path d="M350.802 83.3043C354.118 83.3043 356.816 80.6052 356.816 77.2884C356.816 73.9696 354.12 71.2695 350.802 71.2695C347.488 71.2695 344.791 73.9676 344.791 77.2884C344.791 80.6042 347.488 83.3043 350.802 83.3043ZM350.802 81.4181C348.528 81.4181 346.676 79.564 346.676 77.2884C346.676 75.0098 348.528 73.1577 350.802 73.1577C353.079 73.1577 354.929 75.0088 354.929 77.2884C354.929 79.565 353.079 81.4181 350.802 81.4181Z" fill="#FFAC00"/>
<path d="M325.628 87.5664C325.628 87.0448 326.051 86.6233 326.571 86.6233H330.731C331.252 86.6233 331.671 87.0458 331.671 87.5664C331.671 88.089 331.249 88.5104 330.731 88.5104H326.571C326.05 88.5124 325.628 88.089 325.628 87.5664Z" fill="#A07110"/>
<path d="M318.351 87.5664C318.351 87.0448 318.773 86.6233 319.293 86.6233H323.451C323.972 86.6233 324.394 87.0458 324.394 87.5664C324.394 88.089 323.97 88.5104 323.451 88.5104H319.293C318.773 88.5124 318.351 88.089 318.351 87.5664Z" fill="#A07110"/>
<path d="M324.07 93.4099V89.6716C324.07 89.15 324.491 88.7285 325.01 88.7285C325.531 88.7285 325.952 89.151 325.952 89.6716V93.4099C325.952 93.9315 325.531 94.355 325.01 94.355C324.491 94.354 324.07 93.9305 324.07 93.4099Z" fill="#A07110"/>
<path d="M324.07 85.4629V81.7216C324.07 81.203 324.491 80.7805 325.01 80.7805C325.531 80.7805 325.952 81.204 325.952 81.7216V85.4629C325.952 85.9835 325.531 86.4059 325.01 86.4059C324.491 86.4069 324.07 85.9855 324.07 85.4629Z" fill="#A07110"/>
<path d="M382.125 71.2705C382.125 70.7499 382.551 70.3254 383.07 70.3254H387.23C387.751 70.3254 388.173 70.7489 388.173 71.2705C388.173 71.7921 387.75 72.2136 387.23 72.2136H383.07C382.549 72.2126 382.125 71.7921 382.125 71.2705Z" fill="#FFAC00"/>
<path d="M374.848 71.2705C374.848 70.7499 375.27 70.3254 375.789 70.3254H379.951C380.472 70.3254 380.893 70.7489 380.893 71.2705C380.893 71.7921 380.47 72.2136 379.951 72.2136H375.789C375.268 72.2126 374.848 71.7921 374.848 71.2705Z" fill="#FFAC00"/>
<path d="M380.567 77.112V73.3718C380.567 72.8522 380.991 72.4297 381.511 72.4297C382.031 72.4297 382.452 72.8532 382.452 73.3718V77.112C382.452 77.6336 382.03 78.0561 381.511 78.0561C380.99 78.0571 380.567 77.6346 380.567 77.112Z" fill="#FFAC00"/>
<path d="M380.567 69.168V65.4267C380.567 64.9051 380.991 64.4827 381.511 64.4827C382.031 64.4827 382.452 64.9051 382.452 65.4267V69.168C382.452 69.6886 382.03 70.1101 381.511 70.1101C380.991 70.1101 380.567 69.6866 380.567 69.168Z" fill="#FFAC00"/>
<path d="M134.362 357.728C71.0938 333.165 49.7052 252.547 75.204 193.598C83.6706 174.022 97.2418 156.528 111.964 141.285C118.548 134.466 125.422 127.83 130.761 119.994C136.764 111.185 138.914 102.193 139.804 91.7538C140.577 82.6284 140.73 71.832 149.238 66.1956C168.246 53.6042 182.816 81.6052 192.863 92.2174C201.602 101.451 214.256 106.514 226.95 107.159C239.642 107.803 252.332 104.256 263.556 98.2833C271.415 94.0965 279.255 88.5572 288.161 88.7664C311.37 89.312 320.906 115.9 326.275 134.652C331.519 152.965 337.185 175.381 355.305 185.249C367.305 191.786 381.765 190.847 395.427 191.056C418.981 191.415 444.454 196.644 461.359 214.284C479.102 232.798 486.254 260.299 478.361 284.891C469.409 312.79 433.46 348.652 402.031 344.678" stroke="#A07110" stroke-miterlimit="10" stroke-dasharray="5 5"/>
<path d="M310.029 209.097H275.062L296.401 184.996L310.029 209.097Z" fill="#A07110"/>
<path d="M399.456 209.097H313.641C304.159 209.097 296.403 201.332 296.403 191.845V153.559C296.403 144.07 304.16 136.306 313.641 136.306H399.456C408.937 136.306 416.692 144.071 416.692 153.559V191.845C416.694 201.333 408.937 209.097 399.456 209.097Z" fill="#A07110"/>
<path d="M399.202 158.772H313.895C311.787 158.772 310.062 157.046 310.062 154.935C310.062 152.827 311.787 151.1 313.895 151.1H399.202C401.309 151.1 403.035 152.827 403.035 154.935C403.035 157.047 401.311 158.772 399.202 158.772Z" fill="white"/>
<path d="M399.202 176.537H313.895C311.787 176.537 310.062 174.811 310.062 172.699C310.062 170.591 311.787 168.864 313.895 168.864H399.202C401.309 168.864 403.035 170.591 403.035 172.699C403.035 174.811 401.311 176.537 399.202 176.537Z" fill="white"/>
<path d="M352.716 194.301H313.895C311.787 194.301 310.062 192.574 310.062 190.465C310.062 188.355 311.787 186.627 313.895 186.627H352.716C354.822 186.627 356.549 188.355 356.549 190.465C356.549 192.574 354.823 194.301 352.716 194.301Z" fill="white"/>
<path d="M203.363 122.176H258.734C260.322 122.176 261.608 120.887 261.608 119.3V84.2383C261.608 82.6505 260.322 81.363 258.734 81.363H203.363C201.776 81.363 200.49 82.6505 200.49 84.2383V119.3C200.49 120.887 201.778 122.176 203.363 122.176Z" fill="#A07110"/>
<path d="M260.622 82.6726L233.863 108.64C232.331 110.126 229.769 110.126 228.238 108.64L201.48 82.6726" stroke="white" stroke-miterlimit="10"/>
<path d="M260.622 120.858L238.665 103.98" stroke="white" stroke-miterlimit="10"/>
<path d="M201.48 120.858L223.434 103.98" stroke="white" stroke-miterlimit="10"/>
<path d="M382.911 249.283H414.114C415.7 249.283 416.988 247.996 416.988 246.407V227.484C416.988 225.896 415.701 224.61 414.114 224.61H382.911C381.324 224.61 380.037 225.896 380.037 227.484V246.407C380.037 247.996 381.324 249.283 382.911 249.283Z" fill="white"/>
<path d="M416.389 225.404L400.211 241.104C399.285 242.001 397.736 242.001 396.811 241.104L380.634 225.404" stroke="white" stroke-miterlimit="10"/>
<path d="M416.389 248.489L403.115 238.283" stroke="white" stroke-miterlimit="10"/>
<path d="M380.634 248.489L393.908 238.283" stroke="white" stroke-miterlimit="10"/>
<path d="M127.162 86.4487C142.695 86.4487 155.287 99.0511 155.287 114.597C155.287 130.143 142.695 142.745 127.162 142.745C111.629 142.745 99.0376 130.143 99.0376 114.597C99.0376 99.0511 111.629 86.4487 127.162 86.4487Z" fill="#A07110"/>
<path d="M120.963 112.328L121.984 111.196C122.829 110.264 123.255 109.06 123.192 107.802C123.13 106.546 122.585 105.39 121.651 104.547L119.925 102.985C119.058 102.199 117.94 101.767 116.77 101.767C115.442 101.767 114.17 102.332 113.282 103.316L112.259 104.45C112.129 104.594 112.003 104.754 111.883 104.925L111.836 104.977C110.87 105.805 110.049 107.814 110.525 110.277C112.722 121.736 122.368 130.466 133.978 131.507C135.503 131.647 136.937 131.331 138.022 130.663C138.459 130.413 138.841 130.102 139.168 129.737L140.193 128.604C141.93 126.68 141.782 123.697 139.859 121.956L138.132 120.392C137.267 119.608 136.146 119.175 134.979 119.175C133.651 119.175 132.378 119.741 131.49 120.726L130.466 121.856C130.029 122.341 129.704 122.896 129.497 123.513L129.405 123.786L129.134 123.679C124.57 121.876 120.852 118.46 118.663 114.062L118.517 113.77L118.83 113.677C119.651 113.432 120.388 112.966 120.963 112.328Z" fill="white"/>
<path d="M126.706 98.7489C126.706 99.3556 127.196 99.8471 127.803 99.8471C135.488 99.8471 141.742 106.104 141.742 113.798C141.742 114.403 142.233 114.894 142.84 114.894C143.444 114.894 143.937 114.403 143.937 113.798C143.937 104.894 136.699 97.6516 127.805 97.6516C127.196 97.6506 126.706 98.1422 126.706 98.7489Z" fill="white"/>
<path d="M126.527 104.118C126.527 104.725 127.018 105.216 127.626 105.216C132.45 105.216 136.376 109.145 136.376 113.975C136.376 114.581 136.866 115.072 137.471 115.072C138.076 115.072 138.568 114.581 138.568 113.975C138.568 107.935 133.66 103.024 127.627 103.024C127.019 103.023 126.527 103.512 126.527 104.118Z" fill="white"/>
<path d="M293.198 273.262C283.179 273.262 275.057 265.133 275.057 255.105C275.057 245.078 283.179 236.949 293.198 236.949C303.218 236.949 311.34 245.078 311.34 255.105C311.34 265.133 303.218 273.262 293.198 273.262Z" fill="white"/>
<path d="M289.198 253.641L289.858 252.911C290.402 252.31 290.68 251.534 290.637 250.723C290.598 249.911 290.244 249.164 289.644 248.621L288.53 247.612C287.971 247.106 287.249 246.828 286.497 246.828C285.641 246.828 284.82 247.192 284.245 247.828L283.586 248.558C283.5 248.654 283.42 248.755 283.346 248.867L283.314 248.9C282.69 249.432 282.161 250.731 282.467 252.318C283.885 259.712 290.107 265.343 297.598 266.014C298.578 266.104 299.505 265.903 300.206 265.469C300.486 265.307 300.732 265.107 300.945 264.872L301.604 264.141C302.726 262.899 302.631 260.974 301.39 259.852L300.277 258.844C299.717 258.339 298.996 258.059 298.241 258.059C297.387 258.059 296.566 258.424 295.99 259.059L295.332 259.79C295.051 260.102 294.84 260.46 294.706 260.855L294.646 261.033L294.473 260.965C291.53 259.804 289.13 257.599 287.717 254.76L287.623 254.573L287.824 254.511C288.355 254.354 288.828 254.052 289.198 253.641Z" fill="white"/>
<path d="M292.904 244.881C292.904 245.274 293.218 245.591 293.612 245.591C298.568 245.591 302.602 249.625 302.602 254.588C302.602 254.978 302.916 255.295 303.31 255.295C303.701 255.295 304.016 254.978 304.016 254.588C304.016 248.846 299.349 244.173 293.612 244.173C293.218 244.173 292.904 244.489 292.904 244.881Z" fill="white"/>
<path d="M292.789 248.346C292.789 248.737 293.106 249.056 293.496 249.056C296.61 249.056 299.143 251.588 299.143 254.703C299.143 255.095 299.459 255.412 299.849 255.412C300.24 255.412 300.557 255.095 300.557 254.703C300.557 250.808 297.39 247.638 293.496 247.638C293.106 247.637 292.789 247.954 292.789 248.346Z" fill="white"/>
<path d="M112.916 208.101C103.615 208.101 96.0755 200.555 96.0755 191.247C96.0755 181.938 103.615 174.392 112.916 174.392C122.216 174.392 129.756 181.938 129.756 191.247C129.756 200.555 122.216 208.101 112.916 208.101Z" fill="white"/>
<path d="M109.204 189.889L109.816 189.211C110.321 188.652 110.579 187.932 110.541 187.179C110.505 186.427 110.177 185.735 109.617 185.231L108.584 184.294C108.065 183.825 107.396 183.567 106.696 183.567C105.897 183.567 105.138 183.903 104.606 184.493L103.993 185.173C103.916 185.258 103.841 185.353 103.767 185.456L103.738 185.486C103.162 185.981 102.67 187.185 102.955 188.66C104.271 195.522 110.048 200.748 116.999 201.373C117.911 201.455 118.77 201.268 119.42 200.867C119.683 200.717 119.911 200.53 120.108 200.31L120.721 199.632C121.762 198.479 121.672 196.692 120.52 195.65L119.488 194.714C118.968 194.244 118.299 193.986 117.6 193.986C116.804 193.986 116.041 194.324 115.509 194.913L114.896 195.591C114.636 195.881 114.44 196.213 114.318 196.581L114.26 196.745L114.101 196.682C111.369 195.604 109.14 193.556 107.828 190.923L107.742 190.748L107.929 190.693C108.418 190.551 108.861 190.269 109.204 189.889Z" fill="white"/>
<path d="M112.645 181.758C112.645 182.121 112.938 182.416 113.301 182.416C117.904 182.416 121.647 186.161 121.647 190.768C121.647 191.13 121.94 191.424 122.302 191.424C122.664 191.424 122.959 191.13 122.959 190.768C122.959 185.436 118.626 181.101 113.301 181.101C112.938 181.101 112.645 181.396 112.645 181.758Z" fill="white"/>
<path d="M112.539 184.972C112.539 185.336 112.832 185.63 113.194 185.63C116.086 185.63 118.432 187.981 118.432 190.871C118.432 191.237 118.727 191.53 119.088 191.53C119.449 191.53 119.744 191.237 119.744 190.871C119.744 187.257 116.805 184.316 113.192 184.316C112.832 184.317 112.539 184.608 112.539 184.972Z" fill="white"/>
<path d="M96.3545 214.535C90.5898 209.678 83.6506 206.36 75.8742 205.61C72.1051 205.247 67.9768 205.685 65.1469 208.206C57.7066 214.837 58.4739 230.617 58.6039 239.829C58.915 261.992 64.5307 283.849 73.3475 304.099C77.7098 314.117 82.8714 323.784 88.6811 333.036C91.351 337.289 94.1869 341.434 96.7516 345.747C97.829 347.559 105.04 358.776 103.672 360.577C109.958 352.296 113.464 342.17 115.238 331.924C117.864 316.766 120.713 301.148 119.929 285.497C119.126 269.408 116.762 253.288 111.791 237.934C108.932 229.081 103.565 220.608 96.3545 214.535Z" fill="white"/>
<path d="M104.402 368.515C106.53 341.793 104.191 314.891 99.0673 288.625C94.1748 263.572 87.8179 238.44 78.2839 214.727C75.133 206.89 71.6039 199.204 67.6016 191.767" stroke="#A07110" stroke-miterlimit="10"/>
<path d="M46.8054 227.734C59.9735 232.275 72.5463 238.538 84.1079 246.314C87.0428 248.289 88.6713 248.884 91.124 251.431" stroke="#A07110" stroke-miterlimit="10"/>
<path d="M97.562 279.996C84.8961 271.936 70.5607 266.522 55.7321 264.193" stroke="#A07110" stroke-miterlimit="10"/>
<path d="M102.806 314.41C90.998 304.322 76.6436 297.245 61.457 294.023" stroke="#A07110" stroke-miterlimit="10"/>
<path d="M90.4637 250.557C91.2759 236.422 94.684 222.436 100.468 209.516" stroke="#A07110" stroke-miterlimit="10"/>
<path d="M97.3939 278.834C103.26 266.024 111.786 254.445 122.27 245.042" stroke="#A07110" stroke-miterlimit="10"/>
<path d="M103.595 315.382C104.389 311.435 105.805 307.61 107.775 304.099C110.068 300.011 113.08 296.379 116.145 292.837C118.353 290.289 120.6 287.769 122.887 285.29" stroke="#A07110" stroke-miterlimit="10"/>
<path d="M128.057 264.414C132.371 261.951 137.264 260.621 142.398 261.06C144.886 261.272 147.51 262.049 149.046 264.019C153.084 269.205 150.718 279.346 149.536 285.307C146.706 299.643 140.471 313.151 132.35 325.238C128.332 331.218 123.835 336.872 118.97 342.185C116.735 344.624 114.403 346.975 112.227 349.469C111.315 350.515 105.306 356.93 105.978 358.264C102.886 352.146 101.814 345.163 101.879 338.305C101.973 328.16 101.981 317.694 104.345 307.635C106.775 297.298 110.221 287.125 115.265 277.753C118.173 272.356 122.66 267.498 128.057 264.414Z" fill="white"/>
<path d="M104.569 363.323C106.36 345.739 111.067 328.57 117.51 312.146C123.654 296.479 130.759 280.933 139.755 266.688C142.73 261.982 145.93 257.413 149.406 253.066" stroke="#A07110" stroke-miterlimit="10"/>
<path d="M158.627 278.866C149.549 280.247 140.649 282.814 132.23 286.483C130.091 287.414 128.965 287.607 127.073 288.966" stroke="#A07110" stroke-miterlimit="10"/>
<path d="M119.506 306.729C128.677 303.005 138.617 301.199 148.51 301.452" stroke="#A07110" stroke-miterlimit="10"/>
<path d="M112.023 328.425C120.879 323.285 131.026 320.401 141.261 320.116" stroke="#A07110" stroke-miterlimit="10"/>
<path d="M127.604 288.479C128.755 279.214 128.203 269.739 125.983 260.673" stroke="#A07110" stroke-miterlimit="10"/>
<path d="M119.754 305.996C117.47 296.99 113.314 288.467 107.63 281.122" stroke="#A07110" stroke-miterlimit="10"/>
<path d="M111.395 328.961C111.35 326.306 110.884 323.658 110.024 321.145C109.021 318.222 107.502 315.508 105.931 312.847C104.802 310.931 103.643 309.032 102.454 307.151" stroke="#A07110" stroke-miterlimit="10"/>
<path d="M83.6688 351.571C92.4004 351.571 119.373 351.571 127.594 351.571C127.594 376.399 119.887 401.231 119.887 401.231H91.3741C91.3741 401.23 83.6688 376.508 83.6688 351.571Z" fill="#F9C03B"/>
<path d="M80.3276 344.885H130.933V351.571H80.3276V344.885Z" fill="#F9C03B"/>
<path d="M448.501 386.608H460.038C462.949 386.608 465.32 384.236 465.32 381.322V359.904C465.32 356.991 462.949 354.619 460.038 354.619H448.501C445.59 354.619 443.22 356.991 443.22 359.904V381.322C443.22 384.236 445.59 386.608 448.501 386.608ZM460.038 359.148C460.446 359.148 460.791 359.494 460.791 359.904V381.322C460.791 381.732 460.446 382.079 460.038 382.079H448.501C448.092 382.079 447.745 381.732 447.745 381.322V359.904C447.745 359.494 448.092 359.148 448.501 359.148H460.038Z" fill="#F9C03B"/>
<path d="M424.857 391.184H449.959C452.33 391.184 454.27 389.244 454.27 386.87V352.503C454.27 350.132 452.331 348.19 449.959 348.19H424.859C422.49 348.19 420.549 350.131 420.549 352.503V386.871C420.55 389.246 422.489 391.184 424.857 391.184Z" fill="#F9C03B"/>
<path opacity="0.2" d="M428.35 380.862H429.994C431.575 380.862 432.867 379.568 432.867 377.986V351.065C432.867 349.486 431.575 348.191 429.994 348.191H428.35C426.768 348.191 425.477 349.486 425.477 351.065V377.986C425.477 379.568 426.768 380.862 428.35 380.862Z" fill="white"/>
<path opacity="0.1" d="M441.798 384.407C443.829 384.407 445.493 382.74 445.493 380.708V348.192H450.573C452.605 348.192 454.268 349.857 454.268 351.891V387.488C454.268 389.522 452.605 391.185 450.573 391.185H424.244C422.211 391.185 420.549 389.522 420.549 387.488V384.408L441.798 384.407Z" fill="#231F20"/>
<path d="M135.863 411.281H236.317C244.042 411.281 250.301 406.318 250.301 400.197V325.311C250.301 297.199 221.554 274.407 186.09 274.407C150.627 274.407 121.881 297.199 121.881 325.311V400.197C121.879 406.318 128.138 411.281 135.863 411.281Z" fill="#EFA60F"/>
<path opacity="0.2" d="M143.052 287.536C134.551 296.17 129.473 307.025 129.473 318.825V393.712C129.473 399.834 135.734 404.797 143.455 404.797H243.911C245.896 404.797 247.786 404.462 249.5 403.869C247.585 408.183 242.416 411.279 236.317 411.279H135.863C128.138 411.279 121.879 406.315 121.879 400.194V325.308C121.879 310.323 130.05 296.85 143.052 287.536Z" fill="#231F20"/>
<path d="M185.254 290.731H208.205L211.582 256.879H188.629L185.254 290.731Z" fill="#E99D86"/>
<path d="M233.454 390.934C245.496 390.221 252.269 376.75 245.661 366.65L203.931 302.85C200.853 298.143 195.49 295.446 189.878 295.776C177.835 296.486 171.062 309.958 177.671 320.058L219.402 383.858C222.479 388.566 227.84 391.265 233.454 390.934Z" fill="#C46623"/>
<path d="M338.747 359.126H232.097C223.33 359.126 216.221 366.24 216.221 375.019C216.221 383.792 223.33 390.907 232.097 390.907H338.747C347.515 390.907 354.624 383.792 354.624 375.019C354.624 366.24 347.515 359.126 338.747 359.126Z" fill="#A07110"/>
<path d="M232.225 250.778C223.873 250.778 217.102 244.001 217.102 235.642C217.102 227.283 223.873 220.507 232.225 220.507C240.577 220.507 247.347 227.283 247.347 235.642C247.347 244.001 240.577 250.778 232.225 250.778Z" fill="#A07110"/>
<path d="M148.93 349.546C148.762 359.229 148.801 368.912 148.901 378.595C148.952 383.439 149.017 388.285 149.078 393.129C149.141 398.001 148.631 403.314 149.335 408.112C155.015 408.952 161.395 408.211 167.144 408.211C176.281 408.211 185.419 408.211 194.556 408.211C209.378 408.211 224.202 408.211 239.023 408.211C239.094 408.211 240.477 408.211 240.477 408.211C241.729 407.787 240.471 396.902 240.547 395.444C241.56 375.902 244.298 356.651 243.302 337.016C242.881 328.744 241.912 320.428 239.279 312.575C235.269 300.624 227.473 290.901 215.43 286.58C204.008 282.482 191.254 282.669 179.384 284.328C170.448 285.578 163.155 291.324 157.896 298.407C150.06 308.964 150.003 323.249 149.375 335.874C149.148 340.423 149.009 344.984 148.93 349.546Z" fill="#A07110"/>
<path d="M209.377 157.012C224.244 157.012 236.298 168.123 236.298 181.827V224.992" stroke="#A07110" stroke-width="3" stroke-miterlimit="10"/>
<path d="M199.396 273.771C204.629 273.968 209.909 273.31 214.834 271.571C237.678 263.503 239.897 237.005 239.366 217.337C239.198 211.144 239.229 204.957 238.856 198.77C238.418 191.479 236.191 183.872 228.339 180.981C226.279 180.223 224.078 180.124 221.998 179.495C219.413 178.713 217.073 178.128 214.298 178.128C214.298 178.128 191.011 178.128 191.001 178.128C182.935 178.128 175.238 181.991 170.622 188.262C166.285 194.154 165.942 201.546 165.975 208.485C165.998 214.666 165.913 220.855 166.235 227.03C166.839 238.686 168.738 251.156 176.009 260.906C178.492 264.24 181.583 267.143 185.154 269.43C189.375 272.132 194.315 273.578 199.396 273.771Z" fill="#F7C6B5"/>
<path d="M186.802 160.457C188.739 159.542 190.825 158.954 192.955 158.747C195.589 158.491 198.52 158.733 201.069 159.44C201.933 159.682 208.722 162.067 208.488 163.159C209.308 159.38 212.906 156.639 216.708 155.954C220.51 155.271 224.433 156.323 227.935 157.952C228.868 158.383 234.641 162.965 233.05 164.268C234.931 162.726 237.372 161.985 239.795 161.806C244.127 161.487 250.175 162.399 252.709 166.436C253.872 168.284 254.136 170.573 253.968 172.75C253.638 176.986 251.786 180.991 249.318 184.444C252.089 182.783 256.01 185.124 256.643 188.295C257.277 191.465 255.329 194.708 252.667 196.538C249.243 198.894 244.879 199.353 240.723 199.398C222.597 199.603 204.201 193.428 186.619 197.86C184.014 198.518 182.562 200.188 181.322 202.502C178.726 207.347 176.63 212.443 175.275 217.763C173.596 224.337 171.138 232.035 163.773 233.828C162.087 234.24 160.247 234.699 158.937 233.672C157.472 232.524 156.401 229.428 155.648 227.763C154.482 225.19 153.547 222.514 152.81 219.785C149.625 208.004 149.876 194.831 154.348 183.412C157.178 176.183 162.366 167.73 170.003 165.107C171.77 164.502 174.188 163.771 176.07 164.021C176.699 164.104 179.922 165.898 180.259 165.535C182.025 163.379 184.283 161.643 186.802 160.457Z" fill="#A07110"/>
<path d="M165.723 221.351V181.843C165.723 168.14 177.774 157.033 192.636 157.033H209.369" stroke="#A07110" stroke-width="3" stroke-miterlimit="10"/>
<path d="M224.554 249.792C224.554 256.032 219.499 261.092 213.263 261.092C207.029 261.092 201.97 256.032 201.97 249.792" fill="#333333"/>
<path d="M213.262 262.939C208.033 262.939 203.795 261.126 203.795 258.891C203.795 256.655 208.033 254.843 213.262 254.843C218.49 254.843 222.729 256.655 222.729 258.891C222.729 261.126 218.49 262.939 213.262 262.939Z" fill="#C94958"/>
<path d="M191.147 226.754C191.147 229.987 192.924 232.611 195.114 232.611C197.304 232.611 199.084 229.989 199.084 226.754C199.084 223.519 197.306 220.896 195.114 220.896C192.924 220.897 191.147 223.52 191.147 226.754Z" fill="#231F20"/>
<path d="M229.342 232.611C227.151 232.611 225.375 229.989 225.375 226.754C225.375 223.52 227.151 220.897 229.342 220.897C231.533 220.897 233.31 223.52 233.31 226.754C233.31 229.989 231.533 232.611 229.342 232.611Z" fill="#231F20"/>
<path d="M197.392 212.668C197.392 212.668 197.148 212.542 196.711 212.354C196.493 212.262 196.232 212.144 195.924 212.035C195.62 211.916 195.282 211.775 194.864 211.726C194.456 211.65 194.006 211.568 193.519 211.511C193.029 211.417 192.537 211.467 192.011 211.484C191.491 211.523 190.939 211.488 190.406 211.64C189.867 211.751 189.322 211.886 188.778 212.021C188.258 212.233 187.74 212.446 187.238 212.672C186.717 212.86 186.292 213.215 185.85 213.488C185.418 213.783 184.983 214.035 184.654 214.386C184.301 214.708 183.988 215.033 183.705 215.329C183.403 215.605 183.19 215.926 183.005 216.207C182.814 216.479 182.662 216.73 182.537 216.934C182.29 217.341 182.168 217.582 182.168 217.582C182.168 217.582 182.419 217.45 182.823 217.21C183.023 217.087 183.268 216.943 183.529 216.766C183.793 216.589 184.087 216.39 184.435 216.216C184.778 216.035 185.142 215.839 185.507 215.611C185.861 215.364 186.318 215.242 186.722 215.017C187.144 214.819 187.564 214.586 188.03 214.444C188.488 214.284 188.942 214.1 189.398 213.92C189.873 213.797 190.345 213.675 190.811 213.534C191.271 213.371 191.746 213.318 192.203 213.228C192.658 213.17 193.108 212.999 193.522 212.997C193.941 212.968 194.343 212.911 194.722 212.858C195.096 212.793 195.469 212.789 195.795 212.783C196.12 212.779 196.407 212.756 196.644 212.741C197.119 212.707 197.392 212.668 197.392 212.668Z" fill="#A07110"/>
<path d="M222.614 212.668C222.614 212.668 222.885 212.707 223.36 212.743C223.594 212.758 223.881 212.781 224.208 212.785C224.534 212.791 224.907 212.795 225.281 212.859C225.661 212.913 226.062 212.968 226.48 213C226.895 213.004 227.345 213.174 227.801 213.229C228.257 213.319 228.732 213.373 229.192 213.535C229.657 213.677 230.131 213.799 230.605 213.923C231.061 214.104 231.516 214.286 231.974 214.445C232.44 214.589 232.859 214.821 233.282 215.018C233.686 215.243 234.141 215.365 234.497 215.613C234.861 215.84 235.226 216.036 235.568 216.217C235.919 216.391 236.212 216.589 236.474 216.767C236.735 216.945 236.98 217.088 237.18 217.21C237.585 217.452 237.835 217.583 237.835 217.583C237.835 217.583 237.713 217.342 237.467 216.935C237.341 216.734 237.191 216.482 236.998 216.207C236.812 215.926 236.601 215.607 236.299 215.329C236.015 215.032 235.701 214.708 235.35 214.387C235.02 214.034 234.583 213.782 234.154 213.488C233.713 213.216 233.287 212.86 232.764 212.673C232.263 212.445 231.744 212.234 231.225 212.022C230.681 211.887 230.136 211.752 229.596 211.641C229.065 211.488 228.511 211.524 227.992 211.485C227.468 211.468 226.974 211.42 226.483 211.512C226 211.569 225.547 211.651 225.139 211.727C224.721 211.776 224.384 211.915 224.079 212.036C223.771 212.146 223.51 212.266 223.291 212.355C222.859 212.542 222.614 212.668 222.614 212.668Z" fill="#A07110"/>
<path d="M213.264 241.003C211.116 241.003 209.375 239.399 209.375 237.421C209.375 235.444 211.116 233.84 213.264 233.84C215.411 233.84 217.152 235.444 217.152 237.421C217.152 239.399 215.411 241.003 213.264 241.003Z" fill="#E99D86"/>
<path d="M169.986 245.557C175.083 261.78 191.63 267.609 203.181 265.495" stroke="#A07110" stroke-width="3" stroke-miterlimit="10"/>
<path d="M203.188 270.618C200.361 270.618 198.069 268.325 198.069 265.495C198.069 262.666 200.361 260.373 203.188 260.373C206.014 260.373 208.306 262.666 208.306 265.495C208.306 268.325 206.014 270.618 203.188 270.618Z" fill="#A07110"/>
<path d="M165.687 251.392C156.996 251.392 149.95 244.341 149.95 235.642C149.95 226.944 156.996 219.892 165.687 219.892C174.378 219.892 181.424 226.944 181.424 235.642C181.424 244.341 174.378 251.392 165.687 251.392Z" fill="#A07110"/>
<path d="M165.687 245.092C160.472 245.092 156.245 240.861 156.245 235.642C156.245 230.423 160.472 226.193 165.687 226.193C170.902 226.193 175.129 230.423 175.129 235.642C175.129 240.861 170.902 245.092 165.687 245.092Z" fill="white"/>
<path d="M168.271 391.446C146.844 381.708 147.301 354.687 147.988 334.727C148.345 324.385 148.318 312.989 152.638 303.415C155.454 297.17 160.88 292.443 168.119 293.837C179.449 296.019 181.491 312.013 182.503 320.698C183.593 330.056 183.07 339.531 184.276 348.876C184.797 352.898 185.842 357.227 189.215 359.806C191.86 361.83 195.437 362.375 198.838 362.764C206.563 363.645 214.346 364.073 222.129 364.047C233.22 364.009 244.667 363.097 255.095 366.6C255.961 366.891 256.855 367.237 257.449 367.888C258.316 368.837 258.357 370.197 258.353 371.439C258.343 374.876 258.334 378.313 258.325 381.751C258.32 383.657 258.282 385.677 257.194 387.295C256.255 388.692 254.655 389.59 253.049 390.302C245.327 393.734 236.48 394.026 227.919 394.254C217.312 394.539 206.705 394.821 196.099 395.107C187.102 395.347 176.922 395.247 168.619 391.607C168.504 391.552 168.39 391.5 168.271 391.446Z" fill="#7B5C1A"/>
<path d="M262.86 357.894C255.183 358.24 249.151 362.557 243.491 367.356C241.185 369.309 239.188 371.84 238.684 374.821C238.081 378.386 239.354 382.279 243.2 382.619C248.08 383.053 252.842 382.718 257.136 380.211C260.476 378.262 263.234 374.809 267.301 374.391C270.536 374.058 273.543 375.885 276.607 376.987C279.421 378 282.448 378.419 285.431 378.209C286.295 378.148 287.208 378.015 287.872 377.456C290.591 375.176 284.133 367.453 282.409 365.843C280.593 364.144 278.488 362.781 276.303 361.596C272.167 359.351 267.559 357.683 262.86 357.894Z" fill="#F7C6B5"/>
<path d="M493.257 411.282H64.5309C59.5723 411.282 55.5491 407.256 55.5491 402.292V399.896C55.5491 394.931 59.5714 390.906 64.5309 390.906H493.257C498.217 390.906 502.237 394.931 502.237 399.896V402.292C502.237 407.256 498.217 411.282 493.257 411.282Z" fill="white"/>
<path d="M356.656 377.824C356.656 367.572 348.352 359.262 338.108 359.262C327.865 359.262 319.559 367.572 319.559 377.824" fill="#927060"/>
<path d="M222.185 376.542H289.765C292.938 376.542 295.51 379.117 295.51 382.293V385.152C295.51 388.33 292.938 390.905 289.765 390.905H222.185C219.012 390.905 216.44 388.33 216.44 385.152V382.293C216.439 379.12 219.012 376.542 222.185 376.542Z" fill="#A07110"/>
<path d="M282.929 377.936L301.428 283.672C301.915 281.183 304.099 279.387 306.631 279.387H429.619C431.401 279.387 432.924 280.269 433.88 281.577L433.898 281.562L439.577 288.281L434.539 287.175L416.323 379.986C415.835 382.474 413.655 384.27 411.119 384.27H288.134C284.794 384.268 282.286 381.216 282.929 377.936Z" fill="#A07110"/>
<path d="M416.742 390.907H293.758C290.415 390.907 287.908 387.854 288.552 384.575L307.052 290.312C307.541 287.821 309.723 286.026 312.257 286.026H435.244C438.584 286.026 441.094 289.079 440.449 292.357L421.95 386.622C421.46 389.111 419.279 390.907 416.742 390.907Z" fill="white"/>
<path d="M377.45 329.219H354.466L352.546 343.058H374.936L377.45 329.219Z" fill="#A07110"/>
<g opacity="0.2">
<path d="M386.428 296.11C362.805 296.11 339.181 296.11 315.557 296.11C312.331 296.11 312.331 291.105 315.557 291.105C339.18 291.105 362.804 291.105 386.428 291.105C389.653 291.105 389.653 296.11 386.428 296.11Z" fill="white"/>
</g>
<path d="M417.345 123.649C415.633 121.163 414.625 118.154 414.625 114.907C414.625 106.389 421.523 99.4839 430.035 99.4839C438.546 99.4839 445.445 106.389 445.445 114.907C445.445 123.423 438.547 130.329 430.035 130.329C428.353 130.329 426.737 130.05 425.221 129.551C421.683 130.605 416.964 132.67 416.964 132.67C417.55 128.701 417.509 125.646 417.345 123.649ZM435.538 117.798C436.488 117.798 437.257 117.027 437.257 116.076C437.257 115.126 436.488 114.355 435.538 114.355C434.587 114.355 433.818 115.127 433.818 116.076C433.818 117.027 434.587 117.798 435.538 117.798ZM430.034 117.798C430.984 117.798 431.754 117.027 431.754 116.076C431.754 115.126 430.984 114.355 430.034 114.355C429.084 114.355 428.315 115.127 428.315 116.076C428.315 117.027 429.084 117.798 430.034 117.798ZM424.53 117.798C425.481 117.798 426.25 117.027 426.25 116.076C426.25 115.126 425.481 114.355 424.53 114.355C423.58 114.355 422.811 115.127 422.811 116.076C422.811 117.027 423.58 117.798 424.53 117.798Z" fill="white"/>
<path d="M492.632 203.925C494.324 201.189 495.323 198.181 495.759 195.005C496.638 188.585 495.279 182.655 491.536 177.36C487.443 171.572 481.848 168.073 474.811 167.114C461.909 165.355 450.051 173.787 447.398 186.532C446.377 191.433 446.837 196.227 448.748 200.846C449.343 202.285 450.128 203.658 450.93 204.998C457.657 216.236 464.408 227.458 471.15 238.686C471.247 238.845 471.35 239.005 471.473 239.202C471.583 239.03 471.667 238.908 471.744 238.78C473.282 236.258 474.823 233.737 476.351 231.208L492.632 203.925ZM471.435 178.216C477.186 178.199 481.904 182.907 481.922 188.679C481.94 194.482 477.261 199.204 471.479 199.222C465.707 199.24 460.997 194.558 460.976 188.783C460.952 182.952 465.624 178.233 471.435 178.216Z" fill="#A07110"/>
</svg>
