<svg width="249" height="100" viewBox="0 0 249 100" fill="none" xmlns="http://www.w3.org/2000/svg">
<g clip-path="url(#clip0_51_150)">
<path d="M33 49.5C33 45.1239 34.7384 40.9271 37.8327 37.8327C40.9271 34.7384 45.1239 33 49.5 33C53.8761 33 58.0729 34.7384 61.1673 37.8327C64.2616 40.9271 66 45.1239 66 49.5C66 53.8761 64.2616 58.0729 61.1673 61.1673C58.0729 64.2616 53.8761 66 49.5 66C45.1239 66 40.9271 64.2616 37.8327 61.1673C34.7384 58.0729 33 53.8761 33 49.5Z" fill="#1ABCFE"/>
<path d="M0 82.5C0 78.1239 1.73839 73.9271 4.83274 70.8327C7.92709 67.7384 12.1239 66 16.5 66H33V82.5C33 86.8761 31.2616 91.0729 28.1673 94.1673C25.0729 97.2616 20.8761 99 16.5 99C12.1239 99 7.92709 97.2616 4.83274 94.1673C1.73839 91.0729 0 86.8761 0 82.5H0Z" fill="#0ACF83"/>
<path d="M33 0V33H49.5C53.8761 33 58.0729 31.2616 61.1673 28.1673C64.2616 25.0729 66 20.8761 66 16.5C66 12.1239 64.2616 7.92709 61.1673 4.83274C58.0729 1.73839 53.8761 0 49.5 0L33 0Z" fill="#FF7262"/>
<path d="M0 16.5C0 20.8761 1.73839 25.0729 4.83274 28.1673C7.92709 31.2616 12.1239 33 16.5 33H33V0H16.5C12.1239 0 7.92709 1.73839 4.83274 4.83274C1.73839 7.92709 0 12.1239 0 16.5H0Z" fill="#F24E1E"/>
<path d="M0 49.5C0 53.8761 1.73839 58.0729 4.83274 61.1673C7.92709 64.2616 12.1239 66 16.5 66H33V33H16.5C12.1239 33 7.92709 34.7384 4.83274 37.8327C1.73839 40.9271 0 45.1239 0 49.5H0Z" fill="#A259FF"/>
</g>
<path d="M126.455 38.8716L137.583 49.9999L126.455 61.1282" stroke="black" stroke-width="5" stroke-miterlimit="10" stroke-linecap="round" stroke-linejoin="round"/>
<path d="M106.417 50H137.272" stroke="black" stroke-width="5" stroke-miterlimit="10" stroke-linecap="round" stroke-linejoin="round"/>
<g clip-path="url(#clip1_51_150)">
<path d="M248.791 19.6028L242.353 91.7247L213.414 99.7474L184.554 91.7357L178.123 19.6028H248.791Z" fill="#E44D26"/>
<path d="M213.457 93.6149L236.841 87.1321L242.343 25.5005H213.457V93.6149Z" fill="#F16529"/>
<path d="M200.942 43.1945H213.457V34.3477H191.273L191.485 36.7211L193.66 61.1006H213.457V52.2537H201.75L200.942 43.1945ZM202.936 65.5241H194.055L195.294 79.415L213.416 84.4454L213.457 84.4344V75.2299L213.418 75.2402L203.566 72.5798L202.936 65.5241Z" fill="#EBEBEB"/>
<path d="M184.698 0H189.194V4.44183H193.307V0H197.803V13.451H193.307V8.94681H189.194V13.451H184.699V0H184.698ZM203.715 4.46067H199.758V0H212.171V4.46067H208.212V13.451H203.716V4.46067H203.715H203.715ZM214.141 0H218.829L221.713 4.72632L224.594 0H229.284V13.451H224.806V6.78393L221.713 11.5665H221.635L218.54 6.78393V13.451H214.141V0ZM231.521 0H236.018V9.00499H242.341V13.451H231.521V0H231.521Z" fill="black"/>
<path d="M213.427 61.1006H224.32L223.293 72.5743L213.426 75.2374V84.4413L231.563 79.415L231.696 77.9202L233.775 54.6294L233.991 52.2537H213.427V61.1006ZM213.427 43.1729V43.1945H234.796L234.973 41.2061L235.376 36.7211L235.588 34.3477H213.427V43.1731V43.1729Z" fill="white"/>
</g>
<defs>
<clipPath id="clip0_51_150">
<rect width="66" height="99" fill="white"/>
</clipPath>
<clipPath id="clip1_51_150">
<rect width="70.92" height="100" fill="white" transform="translate(178)"/>
</clipPath>
</defs>
</svg>
