<svg width="71" height="100" viewBox="0 0 71 100" fill="none" xmlns="http://www.w3.org/2000/svg">
<g clip-path="url(#clip0_51_167)">
<path d="M70.7906 19.6028L64.3527 91.7247L35.4136 99.7474L6.55435 91.7357L0.123047 19.6028H70.7906Z" fill="#E44D26"/>
<path d="M35.457 93.6149L58.8412 87.1321L64.3426 25.5005H35.457V93.6149Z" fill="#F16529"/>
<path d="M22.9419 43.1945H35.4571V34.3477H13.2734L13.4851 36.7211L15.6596 61.1006H35.4571V52.2537H23.7504L22.9419 43.1945ZM24.9358 65.5241H16.0549L17.2942 79.415L35.4164 84.4454L35.4571 84.4344V75.2299L35.4183 75.2402L25.5657 72.5798L24.9358 65.5241Z" fill="#EBEBEB"/>
<path d="M6.69824 0H11.1941V4.44183H15.3068V0H19.8029V13.451H15.3071V8.94681H11.1944V13.451H6.69852V0H6.69824ZM25.7149 4.46067H21.7575V0H34.1714V4.46067H30.2115V13.451H25.7157V4.46067H25.7154H25.7149ZM36.1415 0H40.8293L43.7129 4.72632L46.5938 0H51.2836V13.451H46.806V6.78393L43.7129 11.5665H43.6354L40.5403 6.78393V13.451H36.1415V0ZM53.521 0H58.0182V9.00499H64.3406V13.451H53.5207V0H53.521Z" fill="black"/>
<path d="M35.4265 61.1006H46.3205L45.2933 72.5743L35.4263 75.2374V84.4413L53.5628 79.415L53.6958 77.9202L55.775 54.6294L55.9908 52.2537H35.4265V61.1006ZM35.4265 43.1729V43.1945H56.7958L56.9731 41.2061L57.3764 36.7211L57.5878 34.3477H35.4265V43.1731V43.1729Z" fill="white"/>
</g>
<defs>
<clipPath id="clip0_51_167">
<rect width="70.92" height="100" fill="white"/>
</clipPath>
</defs>
</svg>
