<svg width="37" height="25" viewBox="0 0 37 25" fill="none" xmlns="http://www.w3.org/2000/svg">
<path fill-rule="evenodd" clip-rule="evenodd" d="M15.2657 4.37952C12.9528 0.963398 8.16135 -0.0273029 4.56094 2.16683C2.32969 3.52611 0.986497 5.87362 1.0001 8.38933C1.00258 12.4548 4.47683 15.7472 8.76121 15.746C10.2318 15.7435 11.6739 15.3465 12.9157 14.5982C12.306 16.3149 11.1706 18.1479 9.30047 19.9846C8.55466 20.7156 8.57569 21.8819 9.34624 22.5894C10.118 23.2956 11.3474 23.2771 12.092 22.5449C19.0059 15.746 18.1079 8.3547 15.2657 4.38942V4.37952ZM33.8763 4.37952C31.5647 0.963398 26.7719 -0.0273029 23.1715 2.16683C20.9415 3.52611 19.5983 5.87362 19.6107 8.38933C19.6132 12.4548 23.0887 15.7472 27.3718 15.746C28.8436 15.7435 30.2845 15.3465 31.5275 14.5982C30.9178 16.3149 29.7824 18.1479 27.9123 19.9846C27.1665 20.7156 27.1875 21.8819 27.9581 22.5894C28.7286 23.2956 29.958 23.2771 30.7038 22.5449C37.6177 15.746 36.7198 8.3547 33.8763 4.38942V4.37952Z" fill="#A07110" stroke="black" stroke-width="2"/>
</svg>
