<svg width="96" height="79" viewBox="0 0 96 79" fill="none" xmlns="http://www.w3.org/2000/svg">
<path d="M26.4003 50.0613H31.2504C32.0522 50.0613 32.7024 50.8672 32.7024 51.5206V60.7868C32.7024 61.5927 32.0522 62.2461 31.2504 62.2461H26.4003C25.5984 62.2461 24.9482 61.4402 24.9482 60.7868V51.5206C24.9482 50.7147 25.5984 50.0613 26.4003 50.0613Z" fill="white"/>
<path d="M36.1752 42.3901H41.0253C41.8271 42.3901 42.4773 43.196 42.4773 43.8495V60.7876C42.4773 61.5935 41.8271 62.2469 41.0253 62.2469H36.1752C35.3733 62.2469 34.7231 61.4411 34.7231 60.7876V43.8495C34.7231 43.0436 35.3733 42.3901 36.1752 42.3901Z" fill="white"/>
<path d="M45.9501 46.3461H50.8002C51.602 46.3461 52.2522 47.152 52.2522 47.8054V60.7875C52.2522 61.5934 51.602 62.2468 50.8002 62.2468H45.9501C45.1482 62.2468 44.498 61.4409 44.498 60.7875V47.8054C44.498 46.9995 45.1482 46.3461 45.9501 46.3461Z" fill="white"/>
<path d="M55.7245 36.5226H60.5746C61.3764 36.5226 62.0266 37.3285 62.0266 37.9819V60.7872C62.0266 61.5931 61.3764 62.2465 60.5746 62.2465H55.7245C54.9226 62.2465 54.2725 61.4407 54.2725 60.7872V37.9819C54.2725 37.176 54.9226 36.5226 55.7245 36.5226Z" fill="white"/>
<path d="M55.8292 32.4773C56.4126 32.7929 57.0674 32.9534 57.7302 32.9433C58.8328 32.9393 59.8886 32.4954 60.6664 31.7096C61.4436 30.9239 61.8786 29.8594 61.8759 28.7514C61.8732 27.6433 61.4335 26.5809 60.6524 25.7992C59.8712 25.0168 58.8127 24.5783 57.7102 24.5796C56.6077 24.5809 55.5505 25.0222 54.7706 25.8059C53.9915 26.5903 53.5538 27.6533 53.5538 28.7614C53.5618 29.3013 53.6634 29.8359 53.8532 30.3409L50.7098 33.2293C50.0897 32.8727 49.3881 32.686 48.6745 32.6874C47.5599 32.674 46.4847 33.1011 45.6808 33.8761L41.2952 31.0179H41.2946C41.3427 30.76 41.3674 30.4981 41.3694 30.2355C41.2839 28.7983 40.4713 27.5056 39.2164 26.8105C37.9614 26.1161 36.4405 26.1161 35.1857 26.8105C33.9308 27.5056 33.1182 28.7982 33.0327 30.2355C33.0273 30.8171 33.1496 31.392 33.3915 31.9205L31.1162 34.1319C30.6023 33.9056 30.0463 33.7921 29.485 33.8008C28.2829 33.8136 27.1462 34.3515 26.3718 35.2749C25.5967 36.1976 25.2599 37.4144 25.449 38.6072C25.6388 39.7999 26.3357 40.8503 27.3581 41.4849C28.3805 42.1195 29.6274 42.2753 30.7734 41.9113C31.9194 41.5473 32.851 40.6998 33.3247 39.5904C33.7991 38.4803 33.7691 37.2177 33.2418 36.1325L35.4123 34.0117V34.011C35.9729 34.2817 36.587 34.4207 37.2085 34.4173C38.1654 34.4402 39.1003 34.1319 39.858 33.545L44.5128 36.5536C44.5055 36.659 44.5055 36.7645 44.5128 36.8692C44.444 38.0243 44.8523 39.1559 45.6415 39.998C46.4306 40.8401 47.5306 41.3176 48.6818 41.3176C49.8325 41.3176 50.9324 40.8402 51.7217 39.998C52.5108 39.1559 52.9191 38.0244 52.8503 36.8692C52.8516 36.3917 52.7654 35.9169 52.5957 35.4703L55.8292 32.4773Z" fill="white"/>
<path d="M95.5538 17.5391C95.3774 17.3168 95.1182 17.1758 94.8355 17.1482L82.0523 15.8548L73.3112 5.47508C73.1127 5.2407 72.824 5.10369 72.518 5.099C72.2647 5.10236 72.0235 5.20511 71.8444 5.38442C68.9517 8.11161 67.3238 11.9288 67.3539 15.9146H10.6388C8.89477 15.9186 7.22346 16.6177 5.99127 17.8588C4.75973 19.0999 4.06815 20.7808 4.06815 22.5336V66.6399H3.45406C2.2185 66.6601 1.08326 67.3276 0.460406 68.4C0.15904 68.9124 0 69.4967 0 70.0924C0 70.6874 0.159038 71.2723 0.460406 71.7848L2.61618 75.4099C3.88514 77.5078 6.16049 78.7771 8.60348 78.7496H78.4308C80.8712 78.7684 83.1425 77.5012 84.4181 75.4099L86.5739 71.7848H86.5732C87.172 70.7364 87.172 69.4477 86.5732 68.4C85.9504 67.3275 84.8152 66.66 83.5796 66.6398H82.9661V30.0997C85.9003 29.8358 88.6842 28.6753 90.9441 26.7755C93.4853 24.617 95.1914 21.6299 95.7641 18.3365C95.8109 18.0525 95.734 17.7624 95.5543 17.5387L95.5538 17.5391ZM77.3969 29.965V66.6392H9.57619V22.5484C9.59223 21.9701 10.0633 21.5101 10.6387 21.5101H67.997C68.1861 21.5329 68.3766 21.5329 68.5657 21.5101C69.1283 22.8143 69.8741 24.0298 70.7808 25.1204C72.5223 27.2385 74.8349 28.8061 77.4418 29.6334C77.4197 29.7428 77.405 29.853 77.397 29.9645L77.3969 29.965Z" fill="white"/>
<path d="M80.7959 11.582C80.959 11.7754 81.1889 11.8996 81.4394 11.9278H81.5891C81.8197 11.9204 82.0408 11.8358 82.2179 11.6874L89.5825 5.47469C89.789 5.29471 89.9179 5.04086 89.9413 4.76753C89.9707 4.49421 89.8839 4.22087 89.7021 4.01537C87.6493 1.7381 84.7513 0.415172 81.6942 0.359985C79.1963 0.398936 76.7795 1.25384 74.8088 2.79645C74.5749 2.96367 74.4219 3.22223 74.3878 3.50898C74.3531 3.79507 74.4413 4.08316 74.629 4.30076L80.7959 11.582Z" fill="white"/>
<path d="M84.6122 13.989C84.7338 14.3812 85.0746 14.6639 85.4802 14.7109L94.0268 15.6283L94.2667 15.6289C94.7425 15.6323 95.1554 15.2992 95.2543 14.8311C95.6473 12.1012 94.7953 9.33842 92.9344 7.30958C92.7573 7.08326 92.4927 6.94425 92.2067 6.92678C91.9207 6.90931 91.6407 7.0161 91.4375 7.21958L84.9117 12.8607C84.587 13.1367 84.468 13.5866 84.6123 13.9889L84.6122 13.989Z" fill="white"/>
</svg>
