<svg width="282" height="36" viewBox="0 0 282 36" fill="none" xmlns="http://www.w3.org/2000/svg">
<path d="M29.4094 0.161865C21.6484 0.161865 16.7978 4.04237 14.8575 11.8034C17.7679 7.92287 21.1634 6.46768 25.0439 7.43781C27.2579 7.99132 28.8404 9.59752 30.592 11.3755C33.4455 14.2719 36.748 17.6241 43.9613 17.6241C51.7223 17.6241 56.573 13.7436 58.5132 5.98262C55.6028 9.86312 52.2074 11.3183 48.3269 10.3482C46.1128 9.79467 44.5303 8.18847 42.7787 6.41044C39.9253 3.51408 36.6227 0.161865 29.4094 0.161865ZM14.8575 17.6241C7.09654 17.6241 2.24592 21.5046 0.305664 29.2656C3.21604 25.3851 6.61148 23.9299 10.492 24.9001C12.706 25.4536 14.2885 27.0598 16.0401 28.8378C18.8936 31.7342 22.1961 35.0864 29.4094 35.0864C37.1704 35.0864 42.0211 31.2059 43.9613 23.4449C41.0509 27.3254 37.6555 28.7806 33.775 27.8104C31.561 27.2569 29.9785 25.6507 28.2269 23.8727C25.3734 20.9763 22.0709 17.6241 14.8575 17.6241Z" fill="url(#paint0_linear_51_145)"/>
<path d="M87.6126 14.8777H82.5335V24.7083C82.5335 27.3298 84.2538 27.2888 87.6126 27.125V31.0982C80.8131 31.9174 78.1097 30.0332 78.1097 24.7083V14.8777H74.3413V10.6178H78.1097V5.11608L82.5335 3.80534V10.6178H87.6126V14.8777ZM106.974 10.6178H111.398V31.0982H106.974V28.149C105.418 30.3199 103.001 31.6307 99.806 31.6307C94.2354 31.6307 89.6068 26.9202 89.6068 20.858C89.6068 14.7548 94.2354 10.0853 99.806 10.0853C103.001 10.0853 105.418 11.396 106.974 13.526V10.6178ZM100.502 27.4117C104.189 27.4117 106.974 24.6673 106.974 20.858C106.974 17.0486 104.189 14.3043 100.502 14.3043C96.8159 14.3043 94.0305 17.0486 94.0305 20.858C94.0305 24.6673 96.8159 27.4117 100.502 27.4117ZM118.771 7.54571C117.214 7.54571 115.945 6.23496 115.945 4.71941C115.945 3.1629 117.214 1.89311 118.771 1.89311C120.327 1.89311 121.597 3.1629 121.597 4.71941C121.597 6.23496 120.327 7.54571 118.771 7.54571ZM116.559 31.0982V10.6178H120.983V31.0982H116.559ZM126.103 31.0982V1.19678H130.527V31.0982H126.103ZM159.24 10.6178H163.91L157.479 31.0982H153.137L148.877 17.2944L144.576 31.0982H140.234L133.804 10.6178H138.473L142.446 24.7493L146.747 10.6178H150.966L155.226 24.7493L159.24 10.6178ZM169.399 7.54571C167.842 7.54571 166.572 6.23496 166.572 4.71941C166.572 3.1629 167.842 1.89311 169.399 1.89311C170.955 1.89311 172.225 3.1629 172.225 4.71941C172.225 6.23496 170.955 7.54571 169.399 7.54571ZM167.187 31.0982V10.6178H171.61V31.0982H167.187ZM187.503 10.0853C192.091 10.0853 195.368 13.1983 195.368 18.5232V31.0982H190.944V18.9738C190.944 15.8608 189.142 14.2223 186.356 14.2223C183.448 14.2223 181.154 15.9427 181.154 20.1207V31.0982H176.731V10.6178H181.154V13.2393C182.506 11.1093 184.718 10.0853 187.503 10.0853ZM216.34 2.4256H220.763V31.0982H216.34V28.149C214.783 30.3199 212.366 31.6307 209.172 31.6307C203.601 31.6307 198.972 26.9202 198.972 20.858C198.972 14.7548 203.601 10.0853 209.172 10.0853C212.366 10.0853 214.783 11.396 216.34 13.526V2.4256ZM209.868 27.4117C213.554 27.4117 216.34 24.6673 216.34 20.858C216.34 17.0486 213.554 14.3043 209.868 14.3043C206.181 14.3043 203.396 17.0486 203.396 20.858C203.396 24.6673 206.181 27.4117 209.868 27.4117ZM235.591 31.6307C229.406 31.6307 224.778 26.9202 224.778 20.858C224.778 14.7548 229.406 10.0853 235.591 10.0853C239.605 10.0853 243.087 12.1743 244.726 15.3692L240.916 17.5811C240.015 15.656 238.008 14.4271 235.55 14.4271C231.946 14.4271 229.201 17.1715 229.201 20.858C229.201 24.5445 231.946 27.2888 235.55 27.2888C238.008 27.2888 240.015 26.0191 240.998 24.1349L244.807 26.3058C243.087 29.5417 239.605 31.6307 235.591 31.6307ZM252.099 16.2704C252.099 19.9978 263.117 17.745 263.117 25.3227C263.117 29.4188 259.553 31.6307 255.13 31.6307C251.034 31.6307 248.084 29.7875 246.774 26.8383L250.583 24.6264C251.238 26.4696 252.877 27.5756 255.13 27.5756C257.096 27.5756 258.611 26.9202 258.611 25.2818C258.611 21.6362 247.593 23.6843 247.593 16.3523C247.593 12.502 250.911 10.0853 255.089 10.0853C258.447 10.0853 261.233 11.6418 262.666 14.3452L258.939 16.4342C258.202 14.8367 256.768 14.0994 255.089 14.0994C253.491 14.0994 252.099 14.7958 252.099 16.2704ZM270.981 16.2704C270.981 19.9978 282 17.745 282 25.3227C282 29.4188 278.436 31.6307 274.013 31.6307C269.916 31.6307 266.967 29.7875 265.657 26.8383L269.466 24.6264C270.121 26.4696 271.76 27.5756 274.013 27.5756C275.979 27.5756 277.494 26.9202 277.494 25.2818C277.494 21.6362 266.476 23.6843 266.476 16.3523C266.476 12.502 269.794 10.0853 273.972 10.0853C277.33 10.0853 280.116 11.6418 281.549 14.3452L277.822 16.4342C277.085 14.8367 275.651 14.0994 273.972 14.0994C272.374 14.0994 270.981 14.7958 270.981 16.2704Z" fill="#2D3748"/>
<defs>
<linearGradient id="paint0_linear_51_145" x1="-1.31121" y1="11.3377" x2="48.9605" y2="40.3232" gradientUnits="userSpaceOnUse">
<stop stop-color="#2298BD"/>
<stop offset="1" stop-color="#0ED7B5"/>
</linearGradient>
</defs>
</svg>
