<svg width="88" height="89" viewBox="0 0 88 89" fill="none" xmlns="http://www.w3.org/2000/svg">
<path d="M47.2974 1.36378C45.848 1.90591 44.8545 3.39613 44.8545 5.00397C44.8545 6.18906 45.4106 7.865 46.1014 8.79716C46.405 9.22079 48.9993 12.0986 51.847 15.2144L57.0363 20.8524L59.4458 18.4309C60.8951 16.9743 61.8042 15.9422 61.7373 15.8237C61.6695 15.7052 59.6649 12.8265 57.2554 9.40651C52.7903 3.03972 52.2007 2.34546 50.6678 1.66801C49.7235 1.24527 48.0383 1.09227 47.2974 1.36378ZM50.6836 2.63378C51.0541 2.76909 51.6604 3.17591 52.015 3.54824L52.6724 4.2257L52.0995 4.73334C51.4932 5.24099 51.2574 5.34269 51.2574 5.08887C51.2574 4.83505 49.7579 3.24313 49.1515 2.87079C48.8312 2.66738 48.5619 2.43036 48.5619 2.34635C48.561 2.14293 49.7746 2.31186 50.6836 2.63378Z" fill="white"/>
<path d="M77.2196 3.41215C76.6133 3.54746 76.1918 3.86938 74.8102 5.20659L73.1426 6.83212L76.7312 10.4387L80.3199 14.0453L81.7182 12.64C83.4201 10.9295 83.8416 10.1513 83.7395 8.86447L83.6551 7.9332L81.4815 5.73193C80.2512 4.47873 79.1231 3.49705 78.8863 3.44575C78.6505 3.39534 78.3469 3.32725 78.2123 3.29364C78.0785 3.27683 77.6235 3.32813 77.2196 3.41215Z" fill="white"/>
<path d="M5.96887 8.39039C5.48047 8.5089 4.83983 8.74591 4.55383 8.89803C3.77855 9.30396 2.31335 10.7606 1.80735 11.5901C0.829669 13.267 0.879829 11.9466 0.879829 40.6303C0.879829 57.7487 0.947589 67.2145 1.06551 67.7053C1.63839 70.2117 3.77767 72.3785 6.27159 72.9542C6.74327 73.0727 10.7701 73.1408 16.9363 73.1408C22.3782 73.1408 26.8266 73.2089 26.8266 73.2762C26.8266 73.3611 25.6976 76.0028 24.2993 79.1521C21.5361 85.4172 21.3847 85.9761 22.1424 86.941C22.8834 87.9059 22.4627 87.8723 37.1033 87.8723C51.7447 87.8723 51.3232 87.9059 52.0642 86.941C52.8394 85.9593 52.6872 85.4004 49.9073 79.1017C48.5257 75.9355 47.3799 73.2938 47.3799 73.2426C47.3799 73.1921 51.8274 73.1408 57.287 73.1408C63.3352 73.1408 67.4633 73.0727 67.9182 72.9542C69.9739 72.4802 72.0798 70.7026 72.855 68.7887L73.2422 67.807L73.2924 56.7839L73.3426 45.7607L72.283 45.2354C71.6934 44.9479 70.9349 44.4562 70.5978 44.1352L69.9581 43.5426V51.0264C69.9581 59.476 69.9246 59.7298 68.829 60.8132C68.4753 61.1519 67.9702 61.5243 67.7167 61.6092C67.3797 61.7445 57.9109 61.7958 37.0698 61.7958C3.45735 61.7958 6.35519 61.8975 5.19271 60.6107C4.80551 60.1702 4.55207 59.6794 4.43415 59.0532C4.29951 58.4094 4.24847 51.8065 4.28279 36.2286C4.33295 12.0828 4.26607 13.7251 5.36079 12.6417C6.48983 11.5247 4.99031 11.6087 25.2585 11.507L43.6566 11.4221L43.016 10.4059C42.6622 9.847 42.275 9.10233 42.1395 8.7468L41.9204 8.12064L24.3811 8.13744C9.81007 8.13656 6.70983 8.18786 5.96887 8.39039ZM38.2834 65.6562C38.6037 65.8083 39.0419 66.2151 39.2602 66.537C39.5972 67.0279 39.6474 67.2994 39.5972 68.1113C39.5294 68.9408 39.4458 69.161 38.9566 69.6696C37.8618 70.8043 36.3447 70.8043 35.25 69.6696C34.7616 69.1619 34.6771 68.9417 34.6094 68.1113C34.5583 67.2985 34.6094 67.0279 34.9464 66.537C35.4181 65.826 36.2946 65.3519 37.1033 65.3519C37.4245 65.3511 37.963 65.4872 38.2834 65.6562Z" fill="white"/>
<path d="M59.6806 20.3961L47.4653 32.6716L51.054 36.2613L54.6259 39.8679L66.8746 27.5412L79.1401 15.2312L76.5625 12.6576L74.0017 10.0672L62.3769 21.7501L50.768 33.4171L50.2461 32.9263L49.7234 32.4354L61.3658 20.7348L73.0082 9.0342L72.5198 8.57696C72.2673 8.32314 72.0147 8.11972 71.9637 8.11972C71.9293 8.11972 66.4029 13.6402 59.6806 20.3961Z" fill="white"/>
<path d="M67.7677 28.8616L66.0156 30.6224L66.3527 31.0115C66.5207 31.215 67.465 32.2815 68.4418 33.3649C69.4186 34.4483 70.5142 35.7015 70.9014 36.1251C71.2719 36.5488 71.6423 36.9043 71.7435 36.9043C72.0806 36.9043 74.6748 34.6694 74.6748 34.3643C74.6748 34.1954 74.27 33.5347 73.7816 32.9086C73.2765 32.2656 72.1809 30.7241 71.322 29.5054C70.4631 28.269 69.7046 27.2192 69.6368 27.1856C69.5708 27.1343 68.7278 27.8967 67.7677 28.8616Z" fill="white"/>
<path d="M46.303 34.0432C46.2529 34.1617 45.7469 36.1764 45.1907 38.513C44.6345 40.8328 44.1294 42.8651 44.0784 43.0172C44.0106 43.2543 44.8537 43.0845 48.6781 42.1196C51.2557 41.4757 53.3791 40.9345 53.3958 40.9009C53.4125 40.8841 51.8461 39.2753 49.9084 37.3279C47.5333 34.9409 46.3541 33.8743 46.303 34.0432Z" fill="white"/>
<path d="M75.4001 36.0756C74.3723 36.4648 72.8226 37.8197 72.4178 38.666C72.064 39.4107 72.0807 40.3597 72.4178 40.969C73.0408 42.002 75.2487 42.9333 78.3481 43.4409C80.8922 43.8646 87.5978 43.5594 87.0927 43.0509C87.0425 43.0005 86.2329 42.8988 85.3071 42.8307C82.6953 42.6273 81.9878 42.0347 80.9775 39.1737C80.2867 37.243 79.8151 36.532 78.8884 36.058C78.0287 35.6184 76.5626 35.6184 75.4001 36.0756Z" fill="white"/>
</svg>
