<svg width="90" height="27" viewBox="0 0 90 27" fill="none" xmlns="http://www.w3.org/2000/svg">
<path d="M11.1564 27C8.79253 27 6.65926 26.6732 4.75661 26.0196C2.85397 25.3408 1.26843 24.3603 0 23.0782L5.49173 17.4218C6.29891 18.2765 7.09168 18.9302 7.87003 19.3827C8.64839 19.8101 9.45557 20.0237 10.2916 20.0237C12.4825 20.0237 13.578 18.9302 13.578 16.743V6.71229H3.28639V0H23.6533V16.2151C23.6533 19.8352 22.5867 22.5377 20.4534 24.3226C18.3202 26.1075 15.2212 27 11.1564 27ZM24.4131 26.3966L37.6453 0H47.6774L60.9094 26.3966H50.3584L40.5857 4.22346H44.564L34.7913 26.3966H24.4131ZM32.2833 21.7961L34.8778 15.3855H48.8017L51.3962 21.7961H32.2833ZM68.379 26.3966V14.8198L70.7141 20.1369L56.9632 0H67.7304L77.0274 13.764H70.7573L80.1408 0H90L76.3356 20.1369L78.5841 14.8198V26.3966H68.379Z" fill="#A07110"/>
</svg>
